HIERARCHY
ROOT Hips
{
	OFFSET	0.00	0.00	0.00
	CHANNELS 6 Xposition Yposition Zposition Zrotation Xrotation Yrotation
	JOINT LeftUpLeg
	{
		OFFSET	 0.126116	-0.065224	 0.014019
		CHANNELS 3 Zrotation Xrotation Yrotation
		JOINT LeftLeg
		{
			OFFSET	 0.000000	 0.569914	 0.000000
			CHANNELS 3 Zrotation Xrotation Yrotation
			JOINT LeftFoot
			{
				OFFSET	 0.000000	 0.544423	 0.000000
				CHANNELS 3 Zrotation Xrotation Yrotation
				JOINT LeftToeBase
				{
					OFFSET	 0.000000	 0.207117	 0.000000
					CHANNELS 3 Zrotation Xrotation Yrotation
					End Site
					{
						OFFSET	 0.000000	 0.207117	 0.000000
					}
				}
			}
		}
	}
	JOINT RightUpLeg
	{
		OFFSET	-0.124023	-0.065224	 0.008373
		CHANNELS 3 Zrotation Xrotation Yrotation
		JOINT RightLeg
		{
			OFFSET	 0.000000	 0.570047	 0.000000
			CHANNELS 3 Zrotation Xrotation Yrotation
			JOINT RightFoot
			{
				OFFSET	 0.000000	 0.544354	 0.000000
				CHANNELS 3 Zrotation Xrotation Yrotation
				JOINT RightToeBase
				{
					OFFSET	 0.000000	 0.207540	 0.000000
					CHANNELS 3 Zrotation Xrotation Yrotation
					End Site
					{
						OFFSET	 0.000000	 0.207540	 0.000000
					}
				}
			}
		}
	}
	JOINT Spine
	{
		OFFSET	 0.000184	 0.117403	 0.007763
		CHANNELS 3 Zrotation Xrotation Yrotation
		JOINT Spine1
		{
			OFFSET	 0.000000	 0.137269	 0.000000
			CHANNELS 3 Zrotation Xrotation Yrotation
			JOINT Spine2
			{
				OFFSET	 0.000000	 0.156879	 0.000000
				CHANNELS 3 Zrotation Xrotation Yrotation
				JOINT LeftShoulder
				{
					OFFSET	 0.080501	 0.160143	 0.002496
					CHANNELS 3 Zrotation Xrotation Yrotation
					JOINT LeftArm
					{
						OFFSET	 0.000000	 0.164363	 0.000000
						CHANNELS 3 Zrotation Xrotation Yrotation
						JOINT LeftForeArm
						{
							OFFSET	 0.000000	 0.364576	 0.000000
							CHANNELS 3 Zrotation Xrotation Yrotation
							JOINT LeftHand
							{
								OFFSET	 0.000000	 0.360812	 0.000000
								CHANNELS 3 Zrotation Xrotation Yrotation
								JOINT LeftHandIndex1
								{
									OFFSET	 0.000000	 0.086006	 0.000000
									CHANNELS 3 Zrotation Xrotation Yrotation
									JOINT LeftHandIndex2
									{
										OFFSET	 0.000000	 0.047237	 0.000000
										CHANNELS 3 Zrotation Xrotation Yrotation
										JOINT LeftHandIndex3
										{
											OFFSET	-0.004284	 0.038165	 0.000551
											CHANNELS 3 Zrotation Xrotation Yrotation
											End Site
											{
												OFFSET	-0.004284	 0.038165	 0.000551
											}
										}
									}
								}
							}
						}
					}
				}
				JOINT Neck
				{
					OFFSET	 0.000000	 0.176489	 0.000000
					CHANNELS 3 Zrotation Xrotation Yrotation
					JOINT Head
					{
						OFFSET	 0.000000	 0.077941	 0.001747
						CHANNELS 3 Zrotation Xrotation Yrotation
						End Site
						{
							OFFSET	 0.000000	 0.077941	 0.001747
						}
					}
				}
				JOINT RightShoulder
				{
					OFFSET	-0.080363	 0.159706	-0.000306
					CHANNELS 3 Zrotation Xrotation Yrotation
					JOINT RightArm
					{
						OFFSET	 0.000000	 0.164196	 0.000000
						CHANNELS 3 Zrotation Xrotation Yrotation
						JOINT RightForeArm
						{
							OFFSET	 0.000000	 0.365611	 0.000000
							CHANNELS 3 Zrotation Xrotation Yrotation
							JOINT RightHand
							{
								OFFSET	 0.000000	 0.360648	 0.000000
								CHANNELS 3 Zrotation Xrotation Yrotation
								JOINT RightHandIndex1
								{
									OFFSET	 0.000000	 0.069977	 0.000000
									CHANNELS 3 Zrotation Xrotation Yrotation
									JOINT RightHandIndex2
									{
										OFFSET	 0.000000	 0.052305	 0.000000
										CHANNELS 3 Zrotation Xrotation Yrotation
										JOINT RightHandIndex3
										{
											OFFSET	 0.009002	 0.042196	 0.000782
											CHANNELS 3 Zrotation Xrotation Yrotation
											End Site
											{
												OFFSET	 0.009002	 0.042196	 0.000782
											}
										}
									}
								}
							}
						}
					}
				}
			}
		}
	}
}
MOTION
Frames:    12
Frame Time: 0.03333334
-0.009940	 1.233327	 0.010811	 3.119577	 0.415864	 171.966400	-173.193800	 18.733260	 3.023597	 9.777979	-32.534240	 4.898517	-22.779200	 75.080740	 14.224700	 1.161823	 26.686510	-2.659578	-170.585900	 10.193080	-11.305600	-2.544784	-30.399880	 7.709101	 4.626525	 79.473780	-5.182793	-1.288799	 28.369930	 2.710436	 2.141803	 5.964386	-8.093451	 6.999232	 6.478034	-4.533388	-5.810993	-5.893372	 15.145740	-113.109100	 6.496025	 92.944100	 11.104480	 48.681070	 11.596410	 22.377730	-1.128651	 0.139397	-8.058736	-27.434240	-23.454270	 0.628216	 8.444316	-0.355362	-5.948771	 13.624570	 1.522990	 4.989353	-3.439067	-0.332929	 3.183380	-6.827491	 0.885119	-1.239728	-6.082594	 7.320042	 123.401300	 10.383000	-96.377410	-9.852596	 48.246870	-0.383395	-5.079133	-0.199656	 0.049743	-27.305670	-15.797410	-60.023410	-2.331983	 4.921134	 0.895293	 12.544890	 22.992760	-5.182210	-8.501336	 13.178850	-0.530337
-0.010081	 1.233669	 0.011096	 3.063087	 0.302245	 171.512000	-173.077500	 18.718810	 2.519415	 9.767953	-32.507950	 4.699364	-23.358720	 74.891420	 14.827000	 1.161406	 26.680860	-2.659412	-170.538500	 10.495070	-11.618560	-2.563698	-30.643380	 7.505013	 3.614795	 79.461620	-4.048915	-1.288400	 28.364680	 2.710267	 2.353263	 5.629395	-8.006134	 6.607999	 7.314087	-4.450514	-5.376144	-7.248007	 14.960940	-112.927100	 6.521655	 92.963220	 9.866413	 49.090420	 12.884850	 22.572020	-1.137936	 0.143274	-6.916178	-29.515890	-22.823980	 0.769554	 8.005551	-0.353799	-5.946981	 13.723120	 1.533558	 4.996479	-3.282435	-0.329161	 3.178214	-6.831337	 0.914875	-1.227527	-6.323859	 7.476021	 123.279200	 10.402860	-96.364620	-8.871365	 48.598180	-0.942406	-5.080305	-0.199680	 0.049739	-29.610280	-16.463680	-59.209190	-2.383106	 5.081252	 0.893344	 12.576070	 23.415190	-5.284614	-8.504297	 13.524620	-0.552173
-0.010232	 1.233998	 0.011529	 2.971674	 0.148533	 170.890200	-172.928300	 18.689170	 1.831724	 9.745196	-32.447930	 4.424598	-24.116080	 74.649480	 15.616990	 1.160840	 26.673200	-2.659187	-170.479200	 10.904380	-12.044100	-2.588415	-30.961500	 7.228762	 2.261536	 79.460460	-2.540513	-1.287858	 28.357550	 2.710038	 2.609881	 5.278866	-7.840435	 6.149503	 8.140885	-4.297921	-4.844501	-8.632041	 14.611660	-112.680400	 6.556453	 92.988980	 8.639338	 49.642550	 14.274860	 22.657840	-1.142009	 0.144921	-5.380142	-31.926200	-21.697250	 0.960965	 7.410689	-0.349940	-5.944584	 13.856660	 1.547880	 5.006118	-3.070182	-0.324088	 3.171217	-6.836554	 0.955194	-1.214625	-6.586477	 7.658710	 123.113800	 10.429740	-96.347210	-7.866831	 48.912720	-1.470863	-5.081136	-0.199663	 0.049641	-32.096940	-17.484890	-57.957580	-2.452396	 5.298231	 0.890930	 12.619820	 23.987790	-5.424375	-8.508096	 13.993300	-0.581793
-0.010434	 1.234443	 0.012381	 2.790859	-0.118413	 169.799300	-172.680200	 18.622440	 0.630289	 9.689874	-32.301860	 3.938129	-25.347620	 74.234220	 16.910900	 1.159856	 26.659880	-2.658797	-170.373600	 11.612700	-12.786250	-2.628638	-31.479900	 6.749424	-0.089735	 79.454060	 0.055858	-1.286917	 28.345170	 2.709639	 3.023538	 4.790345	-7.524112	 5.489291	 9.256163	-4.011333	-4.002272	-10.536790	 13.846070	-112.251300	 6.617270	 93.033440	 7.031251	 50.638400	 16.285260	 22.587480	-1.138655	 0.143500	-2.583367	-35.617580	-19.334110	 1.293609	 6.375486	-0.338466	-5.940495	 14.088890	 1.572792	 5.022830	-2.701057	-0.315352	 3.159059	-6.845636	 1.025305	-1.194270	-6.968596	 7.933474	 122.826000	 10.476360	-96.316760	-6.545025	 49.229480	-2.084898	-5.084041	-0.199770	 0.049714	-35.587320	-19.481740	-55.642370	-2.572935	 5.675582	 0.887359	 12.700100	 24.983970	-5.670253	-8.514130	 14.808670	-0.633394
-0.010579	 1.234802	 0.013253	 2.605682	-0.363214	 168.780700	-172.460300	 18.546190	-0.484900	 9.625388	-32.130940	 3.480812	-26.388710	 73.845260	 18.015820	 1.158946	 26.647560	-2.658436	-170.268900	 12.260630	-13.474380	-2.662817	-31.921100	 6.307078	-2.261009	 79.426270	 2.428408	-1.286046	 28.333710	 2.709271	 3.387178	 4.414060	-7.227532	 4.990911	 10.120270	-3.743574	-3.277740	-12.011350	 12.997770	-111.854200	 6.673867	 93.074210	 5.878977	 51.607500	 17.888910	 22.376180	-1.128533	 0.139371	 0.243043	-38.684330	-16.770690	 1.601297	 5.416878	-0.322476	-5.936800	 14.303780	 1.595852	 5.038242	-2.359470	-0.307366	 3.147818	-6.854054	 1.090179	-1.175016	-7.277746	 8.152637	 122.559600	 10.519370	-96.288380	-5.627682	 49.349780	-2.428216	-5.086724	-0.199906	 0.049670	-38.205300	-21.538170	-53.415610	-2.684535	 6.024793	 0.884762	 12.779270	 25.906130	-5.901137	-8.519056	 15.563490	-0.681262
-0.010731	 1.235248	 0.014469	 2.343691	-0.674842	 167.446600	-172.188100	 18.426020	-1.935876	 9.526271	-31.866950	 2.878845	-27.609680	 73.330020	 19.328540	 1.157764	 26.631560	-2.657967	-170.122800	 13.086980	-14.279810	-2.760039	-32.438900	 5.628529	-5.053833	 79.352220	 5.450031	-1.284916	 28.318840	 2.708794	 3.840243	 4.001641	-6.839767	 4.452232	 11.103840	-3.384534	-2.384363	-13.661510	 11.718260	-111.338500	 6.747733	 93.126530	 4.741441	 52.922580	 19.690500	 21.955170	-1.108394	 0.131132	 4.359146	-42.235800	-12.878870	 2.000859	 4.171442	-0.294023	-5.932130	 14.582810	 1.625805	 5.058176	-1.915907	-0.297137	 3.133237	-6.865002	 1.174412	-1.148087	-7.639727	 8.396078	 122.213700	 10.575030	-96.251210	-4.777478	 49.318350	-2.618465	-5.090335	-0.200036	 0.049629	-40.880970	-24.480340	-50.407230	-2.829539	 6.478262	 0.882410	 12.889320	 27.103800	-6.206040	-8.524502	 16.543970	-0.743612
-0.010886	 1.235760	 0.015942	 2.014827	-1.019294	 165.888200	-171.893000	 18.252680	-3.616212	 9.394809	-31.514250	 2.174245	-28.859840	 72.723960	 20.696690	 1.156398	 26.613060	-2.657427	-169.942500	 14.012750	-15.292650	-2.817645	-32.976700	 4.941097	-8.203218	 79.214900	 8.823775	-1.283609	 28.301630	 2.708241	 4.338797	 3.621348	-6.372609	 3.917928	 12.085550	-2.922305	-1.394865	-15.255660	 10.012730	-110.742200	 6.833768	 93.186210	 3.922307	 54.489790	 21.366310	 21.303010	-1.076998	 0.118687	 9.828119	-45.669770	-7.528934	 2.463313	 2.730656	-0.250297	-5.926910	 14.905480	 1.660462	 5.081127	-1.402942	-0.285501	 3.116395	-6.877689	 1.271816	-1.113844	-8.017725	 8.630054	 121.813500	 10.639090	-96.207780	-4.222938	 49.065120	-2.516288	-5.099327	-0.200378	 0.049668	-42.972770	-28.233850	-46.718360	-2.997378	 7.002689	 0.881129	 13.027230	 28.488820	-6.566300	-8.529440	 17.678170	-0.816026
-0.011048	 1.236317	 0.017437	 1.674699	-1.352454	 164.310000	-171.603100	 18.043860	-5.300259	 9.248268	-31.117780	 1.461499	-29.959240	 72.111970	 21.924550	 1.155031	 26.594530	-2.656885	-169.742500	 14.907890	-16.310250	-2.869230	-33.452340	 4.258108	-11.212520	 79.028560	 12.023800	-1.282301	 28.284400	 2.707689	 4.823064	 3.334875	-5.865581	 3.423629	 12.894410	-2.376184	-0.442423	-16.512180	 8.108226	-110.144900	 6.920515	 93.245060	 3.716584	 56.066590	 22.515100	 20.473290	-1.036861	 0.103383	 16.030650	-48.239360	-1.317569	 2.927262	 1.287772	-0.194874	-5.921878	 15.228620	 1.695191	 5.104002	-0.889233	-0.274058	 3.099551	-6.890422	 1.369355	-1.076328	-8.361847	 8.828279	 121.412500	 10.702970	-96.163820	-4.098393	 48.616790	-2.095589	-5.107214	-0.200642	 0.049531	-43.935590	-32.304890	-42.735170	-3.165644	 7.527881	 0.881398	 13.177300	 29.875390	-6.935931	-8.532901	 18.814180	-0.888927
-0.011215	 1.237356	 0.019329	 1.228561	-1.806099	 162.310800	-171.226100	 17.740870	-7.430034	 9.014153	-30.477250	 0.536391	-31.109740	 71.290920	 23.262110	 1.153302	 26.571100	-2.656201	-169.471900	 16.032640	-17.605790	-2.924109	-33.953000	 3.403178	-14.806020	 78.723920	 15.834790	-1.280646	 28.262610	 2.706992	 5.418059	 3.044957	-5.159273	 2.769636	 13.623570	-1.554578	 0.718884	-17.579890	 5.538459	-109.389400	 7.031141	 93.318260	 4.571743	 57.996930	 22.970670	 19.029230	-0.966597	 0.078190	 24.572280	-50.057920	 7.293134	 3.516021	-0.536617	-0.108050	-5.915792	 15.637380	 1.739157	 5.132789	-0.239398	-0.259877	 3.078275	-6.906571	 1.492739	-1.024648	-8.757630	 9.057362	 120.905200	 10.783330	-96.107560	-4.467613	 47.856960	-1.188320	-5.119849	-0.201167	 0.049586	-43.436620	-37.718850	-37.192590	-3.378806	 8.192223	 0.883970	 13.385310	 31.628000	-7.417295	-8.535107	 20.251170	-0.981777
-0.011807	 1.238335	 0.021057	 0.732177	-2.244087	 160.094700	-170.872500	 17.350010	-9.707771	 8.779121	-29.825040	-0.455870	-32.174590	 70.488040	 24.531430	 1.151425	 26.545640	-2.655460	-169.189200	 17.155790	-18.963880	-2.973683	-34.400420	 2.484462	-18.117280	 78.363080	 19.322710	-1.278850	 28.238940	 2.706235	 6.012467	 2.897130	-4.275601	 1.977359	 14.021950	-0.492589	 1.914406	-18.084700	 2.762666	-108.568800	 7.152363	 93.396100	 6.564898	 59.809010	 22.456040	 17.491690	-0.891023	 0.053232	 33.470060	-50.200890	 16.494930	 4.158837	-2.515899	 0.007516	-5.909540	 16.081370	 1.786962	 5.163873	 0.466411	-0.244844	 3.055204	-6.924164	 1.626757	-0.963761	-9.148384	 9.324000	 120.354000	 10.870060	-96.045620	-1.378221	 46.904750	-2.779373	-10.586290	-0.414136	 0.020211	-37.864470	-43.496570	-30.284420	-3.610780	 8.913761	 0.889603	 13.635750	 33.528820	-7.959268	-8.534686	 21.811480	-1.083548
-0.012911	 1.238860	 0.022372	 0.175293	-2.622650	 157.672600	-170.544100	 16.888370	-12.269100	 8.590143	-29.294180	-1.507436	-33.660450	 69.702740	 26.286450	 1.149366	 26.517710	-2.654647	-168.863700	 18.275340	-20.544080	-3.032799	-34.927600	 1.479068	-22.016350	 77.963450	 23.448200	-1.276881	 28.212970	 2.705406	 6.582368	 2.905510	-3.187354	 0.858198	 13.967750	 0.803375	 3.206478	-17.946250	 0.017586	-107.668700	 7.286552	 93.479460	 9.187682	 61.207200	 21.395030	 16.369010	-0.835435	 0.036361	 41.426410	-48.541800	 25.117230	 4.869320	-4.682747	 0.159983	-5.903108	 16.568450	 1.839473	 5.197764	 1.240651	-0.228791	 3.029939	-6.943525	 1.773786	-0.892346	-9.541490	 9.688890	 119.748900	 10.964500	-95.976670	 1.290171	 45.852450	-3.934184	-16.059640	-0.623613	-0.029417	-29.449630	-49.288250	-21.527400	-3.865870	 9.705191	 0.899204	 13.942220	 35.609250	-8.579287	-8.530748	 23.521980	-1.196470
-0.015872	 1.238964	 0.022383	-0.320315	-3.030324	 154.847600	-170.125900	 16.392780	-15.234780	 8.528360	-29.119360	-1.472419	-33.158330	 69.719150	 25.891380	 1.146448	 26.478110	-2.653499	-168.419600	 19.421090	-22.330170	-3.097613	-35.430380	 0.145320	-26.422050	 77.371910	 28.213050	-1.275634	 28.196490	 2.704882	 7.256994	 3.063404	-2.716399	 0.380270	 13.471820	 1.522432	 4.112842	-17.064570	-2.171528	-106.458800	 7.164143	 93.500510	 10.938210	 61.764480	 20.236810	 16.914440	-0.862514	 0.044360	 44.764770	-47.297480	 29.764580	 5.597635	-6.878141	 0.416083	-5.896744	 17.087900	 1.895555	 5.233572	 2.063729	-0.212222	 2.994204	-6.927680	 1.992911	-0.921580	-9.779137	 10.605870	 118.796700	 11.085400	-95.813300	 4.777315	 44.533060	-5.756369	-22.977800	-0.879919	-0.120342	-21.998040	-55.458130	-14.679650	-4.187204	 10.712310	 0.923572	 14.404040	 38.352440	-9.446408	-8.520385	 25.676570	-1.341117
